<?xml version="1.0" encoding="UTF-8" standalone="no"?><!DOCTYPE svg PUBLIC "-//W3C//DTD SVG 1.1//EN" "http://www.w3.org/Graphics/SVG/1.1/DTD/svg11.dtd"><svg width="100%" height="100%" viewBox="0 0 3600 2700" version="1.1" xmlns="http://www.w3.org/2000/svg" xmlns:xlink="http://www.w3.org/1999/xlink" xml:space="preserve" xmlns:serif="http://www.serif.com/" style="fill-rule:evenodd;clip-rule:evenodd;stroke-linejoin:round;stroke-miterlimit:2;"><rect x="-37.5" y="-37.5" width="3675" height="2775"/><path d="M1346.017,1336.25c0,-46.262 6.935,-90.917 19.82,-132.982c56.905,-185.761 229.865,-321.001 434.163,-321.001c250.56,0 453.983,203.423 453.983,453.983c0,75.079 -18.264,145.925 -50.589,208.334c-21.049,40.64 -48.06,77.703 -79.873,110.027l-777.502,-316.843l-0.002,-1.518Zm736.872,159.227c26.562,-47.055 41.724,-101.384 41.724,-159.227c0,-179.159 -145.454,-324.613 -324.613,-324.613c-150.16,0 -276.643,102.178 -313.654,240.739l596.543,243.1Zm-228.738,247.257l-378.764,-154.352l0,-142.576l508.657,207.285l-51.568,89.643l-78.324,0Zm-378.764,-102.644l251.878,102.644l-251.878,0l0,-102.644Z" style="fill:#fff;"/></svg>