<?xml version="1.0" encoding="UTF-8" standalone="no"?><!DOCTYPE svg PUBLIC "-//W3C//DTD SVG 1.1//EN" "http://www.w3.org/Graphics/SVG/1.1/DTD/svg11.dtd"><svg width="100%" height="100%" viewBox="0 0 3600 2700" version="1.1" xmlns="http://www.w3.org/2000/svg" xmlns:xlink="http://www.w3.org/1999/xlink" xml:space="preserve" xmlns:serif="http://www.serif.com/" style="fill-rule:evenodd;clip-rule:evenodd;stroke-linejoin:round;stroke-miterlimit:2;"><rect x="-37.5" y="-37.5" width="3675" height="2775"/><path d="M867.653,1398.775c0,-95.009 14.242,-186.718 40.705,-273.106c116.865,-381.499 472.074,-659.241 891.642,-659.241c514.576,0 932.347,417.771 932.347,932.347c0,154.189 -37.51,299.686 -103.894,427.857c-43.229,83.463 -98.702,159.579 -164.035,225.962l-1596.76,-650.702l-0.005,-3.117Zm1513.317,327.004c54.551,-96.637 85.688,-208.213 85.688,-327.004c0,-367.939 -298.72,-666.658 -666.658,-666.658c-308.384,0 -568.143,209.844 -644.153,494.407l1225.124,499.255Zm-469.759,507.794l-777.869,-316.993l0,-292.809l1044.631,425.702l-105.906,184.1l-160.855,0Zm-777.869,-210.8l517.283,210.8l-517.283,0l0,-210.8Z" style="fill:#fff;"/></svg>