<?xml version="1.0" encoding="UTF-8" standalone="no"?><!DOCTYPE svg PUBLIC "-//W3C//DTD SVG 1.1//EN" "http://www.w3.org/Graphics/SVG/1.1/DTD/svg11.dtd"><svg width="100%" height="100%" viewBox="0 0 3600 2700" version="1.1" xmlns="http://www.w3.org/2000/svg" xmlns:xlink="http://www.w3.org/1999/xlink" xml:space="preserve" xmlns:serif="http://www.serif.com/" style="fill-rule:evenodd;clip-rule:evenodd;stroke-linejoin:round;stroke-miterlimit:2;"><g><g><g><path d="M539.66,1267.054c-37.848,0 -68.073,15.242 -90.673,46.015l0,-37.675l-73.518,0l0,306.862l73.518,0l0,-156.163c0,-26.171 6.263,-47.165 18.788,-62.983c12.525,-15.818 28.863,-23.583 49.285,-23.583c19.877,0 34.853,6.615 44.928,19.844c10.075,13.229 15.248,31.348 15.248,54.643l0,168.242l73.791,0l0,-182.909c0,-40.838 -9.53,-73.049 -28.591,-96.631c-19.06,-23.583 -46.562,-35.374 -82.776,-35.374l0,-0.288Z" style="fill:#231f20;fill-rule:nonzero;"/><path d="M828.452,1581.681c34.036,0 62.899,-8.628 86.588,-25.596c23.689,-16.968 40.027,-36.812 49.285,-59.244l-66.439,-20.707c-13.07,26.171 -35.942,39.4 -68.617,39.4c-24.506,0 -43.566,-6.039 -57.453,-18.406c-13.887,-12.366 -22.056,-28.759 -24.506,-49.178l219.194,0c1.089,-6.327 1.634,-15.53 1.634,-27.609c0,-44.002 -13.07,-80.526 -39.21,-109.573c-26.14,-29.047 -61.81,-43.427 -106.738,-43.427c-43.839,0 -79.509,14.955 -106.738,44.864c-27.229,29.91 -40.844,67.584 -40.844,112.736c0,47.165 14.159,85.128 42.477,113.887c28.318,28.759 65.077,43.139 110.55,43.139l0.817,-0.288Zm-81.687,-182.334c2.178,-18.118 10.075,-33.648 23.689,-46.59c13.615,-12.942 30.497,-19.556 50.918,-19.556c21.239,0 38.393,6.327 51.735,18.981c13.342,12.654 20.966,28.472 22.872,47.165l-149.215,0Z" style="fill:#231f20;fill-rule:nonzero;"/><path d="M1195.118,1275.394l0,146.672c0,26.746 -6.263,48.028 -18.516,63.846c-12.253,15.818 -28.863,23.583 -49.829,23.583c-19.605,0 -34.581,-6.615 -44.928,-19.844c-10.347,-13.229 -15.521,-31.348 -15.521,-54.643l0,-159.039l-73.518,0l0,173.706c0,41.126 9.53,73.624 28.318,97.206c18.788,23.583 46.562,35.374 83.049,35.374c38.393,0 68.617,-15.242 90.673,-46.015l0,45.73l73.791,0.285l0,-306.286l-73.518,-0.575Z" style="fill:#231f20;fill-rule:nonzero;"/><path d="M1435.442,1581.681c38.665,0 68.89,-14.955 90.673,-44.864l1.949,45.44l72.386,0l0,-306.862l-74.335,0l0,35.949c-21.783,-29.622 -52.007,-44.289 -90.673,-44.289c-39.482,0 -72.702,14.955 -99.386,44.864c-26.684,29.91 -40.027,67.584 -40.027,112.736c0,44.577 13.342,81.964 40.027,112.161c26.684,30.197 59.632,45.152 99.114,45.152l0.272,-0.288Zm12.525,-69.31c-23.145,0 -42.205,-8.34 -57.181,-24.733c-14.976,-16.393 -22.328,-37.675 -22.328,-63.558c0,-25.596 7.352,-46.59 22.328,-62.983c14.976,-16.393 34.036,-24.445 57.181,-24.445c22.6,0 41.66,8.34 57.181,24.733c15.521,16.393 23.145,37.099 23.145,62.12c0,25.596 -7.624,46.59 -23.145,63.27c-15.521,16.68 -34.581,25.021 -57.181,25.021l0,0.575Z" style="fill:#231f20;fill-rule:nonzero;"/><path d="M1843.769,1275.394l0,146.672c0,26.746 -6.263,48.028 -18.516,63.846c-12.253,15.818 -28.863,23.583 -49.829,23.583c-19.605,0 -34.581,-6.615 -44.928,-19.844c-10.347,-13.229 -15.521,-31.348 -15.521,-54.643l0,-159.039l-73.518,0l0,173.706c0,41.126 9.53,73.624 28.318,97.206c18.788,23.583 46.562,35.374 83.049,35.374c38.393,0 68.617,-15.242 90.673,-46.015l0,46.015l73.791,-0.285l0,-306.001l-73.518,-0.575Z" style="fill:#231f20;fill-rule:nonzero;"/><path d="M2035.352,1319.396l0,-44.002l-73.518,0l0,306.576l73.518,0l0,-138.335c0,-39.113 7.896,-66.722 23.417,-82.827c15.521,-16.105 38.665,-21.569 69.434,-16.393l0,-73.049c-43.566,-6.327 -74.608,9.778 -93.123,48.316l0.272,-0.288Z" style="fill:#231f20;fill-rule:nonzero;"/><path d="M2269.499,1581.681c34.036,0 62.899,-8.628 86.588,-25.596c23.689,-16.968 40.027,-36.812 49.285,-59.244l-66.439,-20.707c-13.07,26.171 -35.942,39.4 -68.617,39.4c-24.506,0 -43.566,-6.039 -57.453,-18.406c-13.887,-12.366 -22.056,-28.759 -24.506,-49.178l219.194,0c1.089,-6.327 1.634,-15.53 1.634,-27.609c0,-44.002 -13.07,-80.526 -39.21,-109.573c-26.14,-29.047 -61.81,-43.427 -106.738,-43.427c-43.839,0 -79.509,14.955 -106.738,44.864c-27.229,29.91 -40.844,67.584 -40.844,112.736c0,47.165 14.159,85.128 42.477,113.887c28.318,28.759 65.077,43.139 110.55,43.139l0.817,-0.288Zm-81.687,-182.334c2.178,-18.118 10.075,-33.648 23.689,-46.59c13.615,-12.942 30.497,-19.556 50.918,-19.556c21.239,0 38.393,6.327 51.735,18.981c13.342,12.654 20.966,28.472 22.872,47.165l-149.215,0Z" style="fill:#231f20;fill-rule:nonzero;"/><path d="M2437.121,1582.256l73.518,-0.285l0,-464.227l-73.518,0l0,464.512Z" style="fill:#231f20;fill-rule:nonzero;"/><path d="M2554.369,1581.967l0,-309.481l74.063,0l0,309.77l-74.063,-0.288Z" style="fill:#231f20;"/><path d="M2873.385,1275.394l0,146.672c0,26.746 -6.263,48.028 -18.516,63.846c-12.253,15.818 -28.863,23.583 -49.829,23.583c-19.605,0 -34.581,-6.615 -44.928,-19.844c-10.347,-13.229 -15.521,-31.348 -15.521,-54.643l0,-159.039l-73.518,0l0,173.706c0,41.126 9.53,73.624 28.318,97.206c18.788,23.583 46.562,35.374 83.049,35.374c38.393,0 68.617,-15.242 90.673,-46.015l0,45.73l73.791,0.285l0,-306.286l-73.518,-0.575Z" style="fill:#231f20;fill-rule:nonzero;"/><path d="M3102.545,1581.681c35.67,0 64.805,-9.203 87.678,-27.609c22.872,-18.406 34.309,-41.701 34.309,-69.885c0,-24.445 -6.807,-42.564 -20.694,-54.643c-13.887,-12.079 -33.492,-22.145 -58.815,-29.91l-70.251,-21.282c-15.521,-4.889 -23.417,-12.654 -23.417,-23.583c0,-7.19 3.812,-13.517 11.708,-18.981c7.896,-5.464 17.427,-8.053 28.591,-8.053c27.774,0 47.923,11.504 60.176,34.799l65.35,-20.132c-8.986,-22.72 -24.778,-40.838 -47.106,-54.643c-22.328,-13.804 -48.468,-20.707 -78.147,-20.707c-31.313,0 -57.998,8.628 -80.053,26.171c-22.056,17.543 -33.219,38.537 -33.219,63.27c0,38.825 23.145,65.284 69.706,79.376l71.885,22.432c20.966,6.615 31.313,16.393 31.313,29.334c0,8.628 -4.357,15.818 -13.07,21.857c-8.713,6.039 -19.877,8.915 -33.764,8.915c-18.243,0 -33.764,-4.601 -46.834,-13.804c-13.07,-9.203 -22.056,-20.994 -26.957,-35.662l-66.439,20.419c7.352,25.021 23.689,46.59 49.012,64.708c25.323,18.118 54.73,27.321 88.222,27.321l0.817,0.288Z" style="fill:#231f20;fill-rule:nonzero;"/></g></g></g></svg>