<?xml version="1.0" encoding="UTF-8" standalone="no"?><!DOCTYPE svg PUBLIC "-//W3C//DTD SVG 1.1//EN" "http://www.w3.org/Graphics/SVG/1.1/DTD/svg11.dtd"><svg width="100%" height="100%" viewBox="0 0 3600 2700" version="1.1" xmlns="http://www.w3.org/2000/svg" xmlns:xlink="http://www.w3.org/1999/xlink" xml:space="preserve" xmlns:serif="http://www.serif.com/" style="fill-rule:evenodd;clip-rule:evenodd;stroke-linejoin:round;stroke-miterlimit:2;"><g><g><path d="M1233.66,1312.854c-17.007,0 -30.589,6.826 -40.744,20.607l0,-16.872l-33.036,0l0,137.424l33.036,0l0,-69.936c0,-11.72 2.814,-21.122 8.442,-28.206c5.628,-7.084 12.97,-10.561 22.146,-10.561c8.932,0 15.661,2.962 20.189,8.887c4.527,5.925 6.852,14.039 6.852,24.471l0,75.345l33.158,0l0,-81.913c0,-18.289 -4.282,-32.714 -12.847,-43.275c-8.565,-10.561 -20.923,-15.842 -37.196,-15.842l0,-0.129Z" style="fill:#231f20;fill-rule:nonzero;"/><path d="M1363.43,1453.755c15.294,0 28.264,-3.864 38.909,-11.463c10.645,-7.599 17.986,-16.486 22.146,-26.532l-29.855,-9.273c-5.873,11.72 -16.151,17.645 -30.833,17.645c-11.012,0 -19.577,-2.705 -25.817,-8.243c-6.24,-5.538 -9.911,-12.879 -11.012,-22.024l98.496,0c0.489,-2.833 0.734,-6.955 0.734,-12.364c0,-19.706 -5.873,-36.063 -17.619,-49.071c-11.746,-13.008 -27.775,-19.448 -47.963,-19.448c-19.699,0 -35.728,6.697 -47.963,20.092c-12.236,13.395 -18.353,30.267 -18.353,50.488c0,21.122 6.362,38.123 19.087,51.003c12.725,12.879 29.243,19.319 49.676,19.319l0.367,-0.129Zm-36.707,-81.656c0.979,-8.114 4.527,-15.069 10.645,-20.865c6.118,-5.796 13.704,-8.758 22.88,-8.758c9.544,0 17.252,2.833 23.247,8.5c5.995,5.667 9.421,12.751 10.278,21.122l-67.051,0Z" style="fill:#231f20;fill-rule:nonzero;"/><path d="M1528.193,1316.589l0,65.685c0,11.978 -2.814,21.509 -8.32,28.592c-5.506,7.084 -12.97,10.561 -22.391,10.561c-8.81,0 -15.539,-2.962 -20.189,-8.887c-4.649,-5.925 -6.974,-14.039 -6.974,-24.471l0,-71.224l-33.036,0l0,77.792c0,18.418 4.282,32.971 12.725,43.533c8.442,10.561 20.923,15.842 37.318,15.842c17.252,0 30.833,-6.826 40.744,-20.607l0,20.479l33.158,0.128l0,-137.166l-33.036,-0.258Z" style="fill:#231f20;fill-rule:nonzero;"/><path d="M1636.184,1453.755c17.374,0 30.956,-6.697 40.744,-20.092l0.876,20.35l32.527,0l0,-137.424l-33.403,0l0,16.099c-9.788,-13.266 -23.37,-19.834 -40.744,-19.834c-17.741,0 -32.669,6.697 -44.66,20.092c-11.991,13.395 -17.986,30.267 -17.986,50.488c0,19.963 5.995,36.707 17.986,50.23c11.991,13.523 26.796,20.221 44.537,20.221l0.122,-0.129Zm5.628,-31.04c-10.4,0 -18.965,-3.735 -25.695,-11.076c-6.73,-7.341 -10.033,-16.872 -10.033,-28.464c0,-11.463 3.304,-20.865 10.033,-28.206c6.73,-7.341 15.294,-10.948 25.695,-10.948c10.155,0 18.72,3.735 25.695,11.076c6.974,7.341 10.4,16.615 10.4,27.82c0,11.463 -3.426,20.865 -10.4,28.335c-6.974,7.47 -15.539,11.205 -25.695,11.205l0,0.258Z" style="fill:#231f20;fill-rule:nonzero;"/><path d="M1819.668,1316.589l0,65.685c0,11.978 -2.814,21.509 -8.32,28.592c-5.506,7.084 -12.97,10.561 -22.391,10.561c-8.81,0 -15.539,-2.962 -20.189,-8.887c-4.649,-5.925 -6.974,-14.039 -6.974,-24.471l0,-71.224l-33.036,0l0,77.792c0,18.418 4.282,32.971 12.725,43.533c8.442,10.561 20.923,15.842 37.318,15.842c17.252,0 30.833,-6.826 40.744,-20.607l0,20.607l33.158,-0.128l0,-137.039l-33.036,-0.258Z" style="fill:#231f20;fill-rule:nonzero;"/><path d="M1905.757,1336.294l0,-19.706l-33.036,0l0,137.296l33.036,0l0,-61.951c0,-17.516 3.548,-29.88 10.523,-37.093c6.974,-7.213 17.374,-9.66 31.201,-7.341l0,-32.714c-19.577,-2.833 -33.525,4.379 -41.845,21.638l0.122,-0.129Z" style="fill:#231f20;fill-rule:nonzero;"/><path d="M2010.972,1453.755c15.294,0 28.264,-3.864 38.909,-11.463c10.645,-7.599 17.986,-16.486 22.146,-26.532l-29.855,-9.273c-5.873,11.72 -16.151,17.645 -30.833,17.645c-11.012,0 -19.577,-2.705 -25.817,-8.243c-6.24,-5.538 -9.911,-12.879 -11.012,-22.024l98.496,0c0.489,-2.833 0.734,-6.955 0.734,-12.364c0,-19.706 -5.873,-36.063 -17.619,-49.071c-11.746,-13.008 -27.775,-19.448 -47.963,-19.448c-19.699,0 -35.728,6.697 -47.963,20.092c-12.236,13.395 -18.353,30.267 -18.353,50.488c0,21.122 6.362,38.123 19.087,51.003c12.725,12.879 29.243,19.319 49.676,19.319l0.367,-0.129Zm-36.707,-81.656c0.979,-8.114 4.527,-15.069 10.645,-20.865c6.118,-5.796 13.704,-8.758 22.88,-8.758c9.544,0 17.252,2.833 23.247,8.5c5.995,5.667 9.421,12.751 10.278,21.122l-67.051,0Z" style="fill:#231f20;fill-rule:nonzero;"/><path d="M2086.293,1454.013l33.036,-0.128l0,-207.898l-33.036,0l0,208.026Z" style="fill:#231f20;fill-rule:nonzero;"/><path d="M2138.979,1453.884l0,-138.597l33.281,0l0,138.726l-33.281,-0.129Z" style="fill:#231f20;"/><path d="M2282.331,1316.589l0,65.685c0,11.978 -2.814,21.509 -8.32,28.592c-5.506,7.084 -12.97,10.561 -22.391,10.561c-8.81,0 -15.539,-2.962 -20.189,-8.887c-4.649,-5.925 -6.974,-14.039 -6.974,-24.471l0,-71.224l-33.036,0l0,77.792c0,18.418 4.282,32.971 12.725,43.533c8.442,10.561 20.923,15.842 37.318,15.842c17.252,0 30.833,-6.826 40.744,-20.607l0,20.479l33.158,0.128l0,-137.166l-33.036,-0.258Z" style="fill:#231f20;fill-rule:nonzero;"/><path d="M2385.305,1453.755c16.029,0 29.121,-4.121 39.398,-12.364c10.278,-8.243 15.417,-18.675 15.417,-31.297c0,-10.948 -3.059,-19.062 -9.299,-24.471c-6.24,-5.409 -15.05,-9.917 -26.429,-13.395l-31.568,-9.531c-6.974,-2.19 -10.523,-5.667 -10.523,-10.561c0,-3.22 1.713,-6.053 5.261,-8.5c3.548,-2.447 7.831,-3.606 12.847,-3.606c12.48,0 21.534,5.152 27.04,15.584l29.365,-9.016c-4.038,-10.175 -11.134,-18.289 -21.167,-24.471c-10.033,-6.182 -21.779,-9.273 -35.116,-9.273c-14.071,0 -26.062,3.864 -35.972,11.72c-9.911,7.856 -14.927,17.259 -14.927,28.335c0,17.387 10.4,29.236 31.323,35.547l32.302,10.046c9.421,2.962 14.071,7.341 14.071,13.137c0,3.864 -1.958,7.084 -5.873,9.788c-3.915,2.705 -8.932,3.993 -15.172,3.993c-8.198,0 -15.172,-2.061 -21.045,-6.182c-5.873,-4.121 -9.911,-9.402 -12.113,-15.971l-29.855,9.144c3.304,11.205 10.645,20.865 22.024,28.979c11.379,8.114 24.593,12.236 39.643,12.236l0.367,0.129Z" style="fill:#231f20;fill-rule:nonzero;"/></g></g></svg>