<?xml version="1.0" encoding="UTF-8" standalone="no"?><!DOCTYPE svg PUBLIC "-//W3C//DTD SVG 1.1//EN" "http://www.w3.org/Graphics/SVG/1.1/DTD/svg11.dtd"><svg width="100%" height="100%" viewBox="0 0 3600 2700" version="1.1" xmlns="http://www.w3.org/2000/svg" xmlns:xlink="http://www.w3.org/1999/xlink" xml:space="preserve" xmlns:serif="http://www.serif.com/" style="fill-rule:evenodd;clip-rule:evenodd;stroke-linejoin:round;stroke-miterlimit:2;"><path d="M1322.562,1374.977c0,-48.652 7.293,-95.615 20.844,-139.853c59.844,-195.359 241.741,-337.585 456.594,-337.585c263.505,0 477.438,213.933 477.438,477.438c0,78.957 -19.208,153.464 -53.202,219.098c-22.137,42.74 -50.543,81.717 -83.999,115.711l-817.672,-333.213l-0.003,-1.596Zm774.942,167.453c27.935,-49.486 43.879,-106.622 43.879,-167.453c0,-188.415 -152.969,-341.384 -341.384,-341.384c-157.918,0 -290.936,107.457 -329.859,253.177l627.364,255.66Zm-240.555,260.032l-398.333,-162.326l0,-149.942l534.936,217.994l-54.233,94.274l-82.371,0Zm-398.333,-107.947l264.891,107.947l-264.891,0l0,-107.947Z"/></svg>