<svg xmlns="http://www.w3.org/2000/svg" xmlns:xlink="http://www.w3.org/1999/xlink" width="500" zoomAndPan="magnify" viewBox="0 0 375 74.999997" height="100" preserveAspectRatio="xMidYMid meet" version="1.0"><path fill="#231f20" d="M 23.464844 26.515625 C 18.527344 26.515625 14.585938 28.503906 11.640625 32.523438 L 11.640625 27.605469 L 2.050781 27.605469 L 2.050781 67.667969 L 11.640625 67.667969 L 11.640625 47.277344 C 11.640625 43.863281 12.457031 41.121094 14.089844 39.054688 C 15.722656 36.992188 17.855469 35.976562 20.519531 35.976562 C 23.109375 35.976562 25.0625 36.839844 26.375 38.566406 C 27.691406 40.296875 28.367188 42.660156 28.367188 45.703125 L 28.367188 67.667969 L 37.988281 67.667969 L 37.988281 43.789062 C 37.988281 38.457031 36.746094 34.25 34.261719 31.171875 C 31.773438 28.09375 28.1875 26.554688 23.464844 26.554688 Z M 23.464844 26.515625 " fill-opacity="1" fill-rule="nonzero"/><path fill="#231f20" d="M 61.128906 67.59375 C 65.566406 67.59375 69.332031 66.464844 72.421875 64.25 C 75.511719 62.035156 77.640625 59.445312 78.847656 56.515625 L 70.183594 53.8125 C 68.480469 57.230469 65.496094 58.957031 61.234375 58.957031 C 58.039062 58.957031 55.554688 58.167969 53.742188 56.554688 C 51.929688 54.9375 50.867188 52.796875 50.546875 50.132812 L 79.132812 50.132812 C 79.273438 49.308594 79.34375 48.105469 79.34375 46.527344 C 79.34375 40.785156 77.640625 36.015625 74.230469 32.222656 C 70.824219 28.429688 66.171875 26.554688 60.3125 26.554688 C 54.59375 26.554688 49.941406 28.503906 46.390625 32.410156 C 42.839844 36.316406 41.0625 41.234375 41.0625 47.128906 C 41.0625 53.285156 42.910156 58.242188 46.605469 61.996094 C 50.296875 65.753906 55.089844 67.628906 61.019531 67.628906 Z M 50.476562 43.789062 C 50.757812 41.421875 51.789062 39.394531 53.5625 37.703125 C 55.339844 36.015625 57.542969 35.152344 60.203125 35.152344 C 62.972656 35.152344 65.210938 35.976562 66.953125 37.628906 C 68.691406 39.28125 69.6875 41.347656 69.933594 43.789062 L 50.472656 43.789062 Z M 50.476562 43.789062 " fill-opacity="1" fill-rule="nonzero"/><path fill="#231f20" d="M 108.945312 27.605469 L 108.945312 46.753906 C 108.945312 50.246094 108.128906 53.023438 106.53125 55.089844 C 104.933594 57.152344 102.769531 58.167969 100.035156 58.167969 C 97.476562 58.167969 95.523438 57.304688 94.175781 55.578125 C 92.824219 53.851562 92.148438 51.484375 92.148438 48.441406 L 92.148438 27.679688 L 82.5625 27.679688 L 82.5625 50.359375 C 82.5625 55.726562 83.804688 59.96875 86.253906 63.046875 C 88.707031 66.128906 92.328125 67.667969 97.085938 67.667969 C 102.09375 67.667969 106.035156 65.675781 108.910156 61.660156 L 108.910156 67.628906 L 118.535156 67.667969 L 118.535156 27.679688 Z M 108.945312 27.605469 " fill-opacity="1" fill-rule="nonzero"/><path fill="#231f20" d="M 140.289062 67.59375 C 145.332031 67.59375 149.273438 65.640625 152.113281 61.734375 L 152.367188 67.667969 L 161.808594 67.667969 L 161.808594 27.605469 L 152.113281 27.605469 L 152.113281 32.296875 C 149.273438 28.429688 145.332031 26.515625 140.289062 26.515625 C 135.140625 26.515625 130.808594 28.46875 127.328125 32.375 C 123.847656 36.277344 122.105469 41.195312 122.105469 47.089844 C 122.105469 52.910156 123.847656 57.792969 127.328125 61.734375 C 130.808594 65.675781 135.105469 67.628906 140.253906 67.628906 Z M 141.921875 58.542969 C 138.902344 58.542969 136.417969 57.453125 134.464844 55.3125 C 132.511719 53.175781 131.554688 50.394531 131.554688 47.015625 C 131.554688 43.675781 132.511719 40.933594 134.464844 38.792969 C 136.417969 36.652344 138.902344 35.601562 141.921875 35.601562 C 144.871094 35.601562 147.355469 36.691406 149.378906 38.832031 C 151.402344 40.972656 152.398438 43.675781 152.398438 46.941406 C 152.398438 50.28125 151.402344 53.023438 149.378906 55.203125 C 147.355469 57.378906 144.871094 58.46875 141.921875 58.46875 Z M 141.921875 58.542969 " fill-opacity="1" fill-rule="nonzero"/><path fill="#231f20" d="M 193.542969 27.605469 L 193.542969 46.753906 C 193.542969 50.246094 192.722656 53.023438 191.125 55.089844 C 189.527344 57.152344 187.363281 58.167969 184.628906 58.167969 C 182.070312 58.167969 180.117188 57.304688 178.769531 55.578125 C 177.417969 53.851562 176.746094 51.484375 176.746094 48.441406 L 176.746094 27.679688 L 167.15625 27.679688 L 167.15625 50.359375 C 167.15625 55.726562 168.398438 59.96875 170.851562 63.046875 C 173.300781 66.128906 176.921875 67.667969 181.679688 67.667969 C 186.6875 67.667969 190.628906 65.675781 193.503906 61.660156 L 193.503906 67.667969 L 203.128906 67.628906 L 203.128906 27.679688 Z M 193.542969 27.605469 " fill-opacity="1" fill-rule="nonzero"/><path fill="#231f20" d="M 218.527344 33.347656 L 218.527344 27.605469 L 208.9375 27.605469 L 208.9375 67.628906 L 218.527344 67.628906 L 218.527344 49.570312 C 218.527344 44.464844 219.554688 40.859375 221.582031 38.757812 C 223.605469 36.652344 226.621094 35.941406 230.636719 36.617188 L 230.636719 27.078125 C 224.953125 26.253906 220.90625 28.355469 218.492188 33.386719 Z M 218.527344 33.347656 " fill-opacity="1" fill-rule="nonzero"/><path fill="#231f20" d="M 249.0625 67.59375 C 253.5 67.59375 257.265625 66.464844 260.355469 64.25 C 263.445312 62.035156 265.574219 59.445312 266.78125 56.515625 L 258.117188 53.8125 C 256.414062 57.230469 253.429688 58.957031 249.167969 58.957031 C 245.972656 58.957031 243.488281 58.167969 241.675781 56.554688 C 239.867188 54.9375 238.800781 52.796875 238.480469 50.132812 L 267.066406 50.132812 C 267.210938 49.308594 267.28125 48.105469 267.28125 46.527344 C 267.28125 40.785156 265.574219 36.015625 262.167969 32.222656 C 258.757812 28.429688 254.105469 26.554688 248.246094 26.554688 C 242.527344 26.554688 237.878906 28.503906 234.324219 32.410156 C 230.773438 36.316406 229 41.234375 229 47.128906 C 229 53.285156 230.847656 58.242188 234.539062 61.996094 C 238.230469 65.753906 243.027344 67.628906 248.957031 67.628906 Z M 238.410156 43.789062 C 238.695312 41.421875 239.722656 39.394531 241.5 37.703125 C 243.273438 36.015625 245.476562 35.152344 248.140625 35.152344 C 250.910156 35.152344 253.148438 35.976562 254.886719 37.628906 C 256.625 39.28125 257.621094 41.347656 257.871094 43.789062 Z M 238.410156 43.789062 " fill-opacity="1" fill-rule="nonzero"/><path fill="#231f20" d="M 270.921875 67.667969 L 280.511719 67.628906 L 280.511719 7.023438 L 270.921875 7.023438 Z M 270.921875 67.667969 " fill-opacity="1" fill-rule="nonzero"/><path fill="#231f20" d="M 286.214844 67.628906 L 286.214844 27.226562 L 295.875 27.226562 L 295.875 67.667969 Z M 286.214844 67.628906 " fill-opacity="1" fill-rule="evenodd"/><path fill="#231f20" d="M 327.820312 27.605469 L 327.820312 46.753906 C 327.820312 50.246094 327.003906 53.023438 325.40625 55.089844 C 323.804688 57.152344 321.640625 58.167969 318.90625 58.167969 C 316.347656 58.167969 314.394531 57.304688 313.046875 55.578125 C 311.695312 53.851562 311.023438 51.484375 311.023438 48.441406 L 311.023438 27.679688 L 301.433594 27.679688 L 301.433594 50.359375 C 301.433594 55.726562 302.675781 59.96875 305.128906 63.046875 C 307.578125 66.128906 311.199219 67.667969 315.957031 67.667969 C 320.964844 67.667969 324.90625 65.675781 327.785156 61.660156 L 327.785156 67.628906 L 337.40625 67.667969 L 337.40625 27.679688 Z M 327.820312 27.605469 " fill-opacity="1" fill-rule="nonzero"/><path fill="#231f20" d="M 357.707031 67.59375 C 362.355469 67.59375 366.15625 66.390625 369.140625 63.988281 C 372.121094 61.585938 373.613281 58.542969 373.613281 54.863281 C 373.613281 51.671875 372.726562 49.308594 370.914062 47.730469 C 369.105469 46.152344 366.546875 44.839844 363.246094 43.824219 L 354.082031 41.046875 C 352.058594 40.40625 351.027344 39.394531 351.027344 37.96875 C 351.027344 37.027344 351.527344 36.203125 352.554688 35.488281 C 353.585938 34.777344 354.828125 34.4375 356.285156 34.4375 C 359.90625 34.4375 362.535156 35.941406 364.132812 38.980469 L 372.65625 36.351562 C 371.484375 33.386719 369.425781 31.019531 366.511719 29.21875 C 363.601562 27.417969 360.191406 26.515625 356.320312 26.515625 C 352.238281 26.515625 348.757812 27.640625 345.878906 29.933594 C 343.003906 32.222656 341.546875 34.964844 341.546875 38.191406 C 341.546875 43.261719 344.566406 46.714844 350.640625 48.554688 L 360.011719 51.484375 C 362.746094 52.347656 364.097656 53.625 364.097656 55.3125 C 364.097656 56.441406 363.527344 57.378906 362.394531 58.167969 C 361.257812 58.957031 359.800781 59.332031 357.988281 59.332031 C 355.609375 59.332031 353.585938 58.730469 351.882812 57.527344 C 350.175781 56.328125 349.003906 54.789062 348.367188 52.875 L 339.703125 55.539062 C 340.660156 58.804688 342.789062 61.621094 346.09375 63.988281 C 349.394531 66.351562 353.230469 67.554688 357.597656 67.554688 L 357.707031 67.589844 Z M 357.707031 67.59375 " fill-opacity="1" fill-rule="nonzero"/></svg>